<?xml version="1.0" standalone="no"?>
<!DOCTYPE svg PUBLIC "-//W3C//DTD SVG 20010904//EN"
 "http://www.w3.org/TR/2001/REC-SVG-20010904/DTD/svg10.dtd">
<svg version="1.0" xmlns="http://www.w3.org/2000/svg"
 width="920.000000pt" height="680.000000pt" viewBox="0 0 920.000000 680.000000"
 preserveAspectRatio="xMidYMid meet">

<g transform="translate(0.000000,680.000000) scale(0.100000,-0.100000)"
fill="#000000" stroke="none">
<path d="M5391 5816 c-19 -10 -24 -22 -25 -55 0 -22 1 -41 4 -41 19 2 38 32
41 68 3 23 4 42 4 42 0 -1 -11 -7 -24 -14z"/>
<path d="M5318 5774 c-23 -12 -28 -21 -28 -54 0 -45 5 -47 38 -22 18 14 23 26
20 54 -3 36 -3 36 -30 22z"/>
<path d="M5238 5729 c-22 -17 -28 -29 -28 -60 l0 -40 30 18 c26 15 30 23 30
60 0 24 -1 43 -2 43 -2 0 -15 -10 -30 -21z"/>
<path d="M5386 5715 c-14 -10 -19 -28 -20 -69 0 -31 1 -56 4 -56 3 0 13 7 24
15 14 10 19 28 20 69 0 31 -1 56 -4 56 -3 0 -13 -7 -24 -15z"/>
<path d="M5158 5682 c-23 -13 -28 -24 -28 -54 0 -43 0 -42 35 -26 21 9 25 18
25 55 0 23 -1 43 -2 43 -2 0 -15 -8 -30 -18z"/>
<path d="M5318 5674 c-25 -13 -28 -20 -28 -70 l0 -55 30 16 c28 14 30 20 30
70 0 30 -1 55 -2 55 -2 -1 -15 -8 -30 -16z"/>
<path d="M5068 5629 c-34 -17 -38 -23 -38 -59 0 -22 3 -40 8 -39 4 0 23 10 42
23 28 19 35 29 35 59 2 43 2 42 -47 16z"/>
<path d="M5238 5632 c-25 -15 -28 -22 -28 -75 l0 -58 30 18 c28 16 30 21 30
75 0 32 -1 58 -2 57 -2 0 -15 -8 -30 -17z"/>
<path d="M5158 5582 c-25 -15 -28 -23 -28 -69 0 -57 6 -63 39 -35 19 14 22 26
19 69 l-3 52 -27 -17z"/>
<path d="M5386 5585 c-13 -10 -19 -28 -20 -68 -1 -55 -1 -55 23 -43 20 11 23
21 25 69 0 32 -1 57 -4 57 -3 0 -13 -7 -24 -15z"/>
<path d="M5073 5534 c-42 -25 -43 -27 -43 -80 0 -30 3 -54 8 -53 4 0 23 10 42
23 32 22 35 27 36 80 0 31 0 56 0 56 -1 -1 -20 -12 -43 -26z"/>
<path d="M5313 5543 c-19 -13 -23 -25 -23 -69 l0 -55 30 16 c28 14 30 20 30
70 0 59 -3 62 -37 38z"/>
<path d="M5238 5502 c-25 -15 -28 -23 -28 -74 l0 -57 30 17 c28 16 30 21 30
75 0 31 -1 57 -2 56 -2 0 -15 -8 -30 -17z"/>
<path d="M5158 5454 c-25 -13 -28 -20 -28 -69 0 -59 6 -65 39 -37 19 14 22 26
19 69 l-3 51 -27 -14z"/>
<path d="M5386 5455 c-13 -10 -19 -28 -20 -68 -1 -55 -1 -55 23 -43 20 11 24
21 25 69 0 32 -1 57 -4 57 -3 0 -13 -7 -24 -15z"/>
<path d="M5073 5404 c-42 -25 -43 -26 -43 -80 l0 -55 42 23 c42 23 42 24 43
81 1 31 1 57 1 57 -1 0 -20 -12 -43 -26z"/>
<path d="M5313 5413 c-19 -13 -23 -25 -23 -69 l0 -55 30 16 c28 14 30 20 30
70 0 59 -3 62 -37 38z"/>
<path d="M5238 5372 c-25 -15 -28 -23 -28 -74 l0 -57 30 17 c28 16 30 21 30
75 0 31 -1 57 -2 56 -2 0 -15 -8 -30 -17z"/>
<path d="M5158 5324 c-25 -13 -28 -20 -28 -69 0 -30 3 -55 8 -55 4 0 17 8 30
18 20 15 23 25 20 69 l-3 51 -27 -14z"/>
<path d="M5386 5327 c-14 -10 -19 -28 -20 -69 l-1 -56 25 15 c22 12 25 21 25
69 0 58 -2 61 -29 41z"/>
<path d="M5073 5274 c-42 -25 -43 -26 -43 -81 l0 -55 42 25 c42 24 43 26 43
81 1 31 1 56 0 56 0 0 -19 -12 -42 -26z"/>
<path d="M5312 5284 c-18 -12 -22 -25 -22 -70 l0 -55 30 16 c28 14 30 20 30
70 0 59 -4 63 -38 39z"/>
<path d="M5238 5242 c-25 -15 -28 -23 -28 -74 l0 -57 30 17 c28 16 30 21 30
75 0 31 -1 57 -2 56 -2 0 -15 -8 -30 -17z"/>
<path d="M5158 5194 c-25 -13 -28 -20 -28 -69 0 -30 3 -55 8 -55 4 0 17 8 30
18 20 15 23 25 20 69 l-3 51 -27 -14z"/>
<path d="M5388 5198 c-11 -9 -18 -32 -20 -70 l-3 -56 25 15 c22 12 25 21 25
69 0 58 -2 61 -27 42z"/>
<path d="M5073 5144 c-42 -25 -43 -26 -43 -81 l0 -55 42 25 c42 24 43 26 43
81 1 31 1 56 0 56 0 0 -19 -12 -42 -26z"/>
<path d="M5312 5154 c-18 -12 -22 -25 -22 -70 l0 -55 30 18 c27 16 30 22 30
70 0 57 -4 61 -38 37z"/>
<path d="M5238 5112 c-25 -15 -28 -22 -28 -74 l0 -57 30 17 c28 16 30 21 30
75 0 31 -1 57 -2 57 -2 0 -15 -8 -30 -18z"/>
<path d="M5158 5064 c-25 -13 -28 -20 -28 -70 l0 -55 30 16 c28 14 30 20 30
70 0 30 -1 55 -2 55 -2 -1 -15 -8 -30 -16z"/>
<path d="M5388 5069 c-14 -8 -18 -23 -18 -64 0 -57 4 -63 30 -42 10 8 15 30
15 65 0 56 -1 57 -27 41z"/>
<path d="M5068 5014 c-36 -23 -38 -27 -38 -80 l0 -55 42 25 c42 25 43 26 43
81 1 30 -2 55 -5 54 -3 0 -22 -11 -42 -25z"/>
<path d="M5313 5028 c-20 -10 -23 -19 -23 -70 l0 -59 30 18 c27 16 30 22 30
70 0 56 -2 58 -37 41z"/>
<path d="M6540 5010 c-8 -6 -31 -8 -50 -5 -30 4 -51 -4 -139 -56 -90 -54 -101
-63 -85 -72 10 -6 127 -73 259 -150 l240 -139 50 28 c28 15 79 44 113 65 l64
36 -64 36 c-58 33 -63 34 -68 16 -4 -15 -128 -99 -146 -99 -2 0 -4 25 -4 55
l0 54 71 40 71 39 -71 41 c-240 138 -216 127 -241 111z"/>
<path d="M5238 4982 c-25 -15 -28 -23 -28 -69 0 -29 2 -53 5 -53 2 0 16 5 30
12 23 10 25 17 25 70 0 32 -1 58 -2 58 -2 0 -15 -8 -30 -18z"/>
<path d="M5656 4965 c4 -8 10 -12 15 -9 5 3 9 0 9 -6 0 -6 5 -8 10 -5 6 3 10
1 10 -5 0 -6 4 -9 9 -6 5 3 12 -1 15 -10 4 -9 9 -14 13 -11 3 4 11 -1 18 -10
7 -9 17 -13 24 -9 8 5 -12 22 -54 47 -76 44 -76 44 -69 24z"/>
<path d="M5153 4933 c-19 -13 -23 -25 -23 -69 l0 -55 30 16 c28 14 30 20 30
70 0 59 -3 62 -37 38z"/>
<path d="M5385 4937 c-15 -9 -20 -23 -20 -60 0 -26 2 -47 5 -47 21 2 38 32 41
73 4 51 4 52 -26 34z"/>
<path d="M5318 4900 c-24 -13 -28 -21 -28 -62 0 -52 6 -57 40 -30 17 14 21 26
18 63 l-3 45 -27 -16z"/>
<path d="M5068 4886 c-37 -20 -38 -22 -38 -79 l0 -58 42 25 c42 25 43 26 43
81 1 30 -2 55 -5 54 -3 -1 -22 -11 -42 -23z"/>
<path d="M5238 4854 c-25 -13 -28 -20 -28 -69 0 -30 2 -55 4 -55 3 0 17 11 31
24 22 21 26 32 23 69 l-3 45 -27 -14z"/>
<path d="M5667 4778 l-138 -81 3 -76 c3 -70 5 -76 26 -79 21 -3 22 -1 22 77 0
45 2 81 4 81 3 0 31 -16 63 -35 32 -19 61 -35 65 -35 3 0 31 14 62 32 47 27
56 37 56 60 0 33 2 33 36 12 19 -13 22 -19 12 -31 -10 -12 -8 -12 15 -2 l27
12 -50 29 c-48 27 -50 30 -50 73 0 25 -3 45 -7 44 -5 0 -70 -37 -146 -81z"/>
<path d="M5153 4803 c-19 -13 -23 -25 -23 -69 l0 -55 30 16 c28 14 30 20 30
70 0 59 -3 62 -37 38z"/>
<path d="M5392 4804 c-18 -12 -22 -25 -22 -64 0 -49 0 -49 24 -39 22 10 25 18
25 65 0 30 -1 54 -2 54 -2 0 -13 -7 -25 -16z"/>
<path d="M5068 4756 c-37 -20 -38 -22 -38 -79 l0 -58 42 25 c42 25 43 26 43
81 1 30 -2 55 -5 54 -3 -1 -22 -11 -42 -23z"/>
<path d="M5318 4762 c-25 -15 -28 -23 -28 -69 l0 -52 30 17 c27 15 30 22 30
70 0 28 -1 52 -2 52 -2 0 -15 -8 -30 -18z"/>
<path d="M6040 4744 c0 -9 5 -12 10 -9 6 3 10 1 10 -5 0 -6 5 -8 10 -5 6 3 10
1 10 -5 0 -6 5 -8 10 -5 6 3 13 -1 16 -9 3 -9 10 -13 15 -10 5 3 9 0 9 -6 0
-6 4 -9 9 -6 5 4 11 1 13 -5 2 -7 10 -10 17 -8 8 3 -18 23 -58 46 -51 30 -71
37 -71 27z"/>
<path d="M6260 4678 c0 -41 5 -69 13 -75 29 -23 107 -63 107 -56 0 4 -24 22
-53 38 l-52 31 -1 57 c-2 80 -14 85 -14 5z"/>
<path d="M5258 4725 c-3 -3 -14 -8 -25 -9 -15 -2 -19 -13 -21 -59 -3 -62 1
-66 36 -39 20 15 23 26 20 66 -2 26 -6 45 -10 41z"/>
<path d="M5390 4682 c-21 -15 -25 -25 -25 -70 0 -28 1 -52 2 -52 1 0 14 5 28
12 17 8 25 19 25 37 0 19 -3 22 -12 13 -17 -17 -28 -15 -28 6 0 10 9 25 20 35
11 9 20 21 20 27 0 12 1 12 -30 -8z"/>
<path d="M6903 4621 l-133 -76 0 -382 0 -382 -31 -16 c-17 -9 -29 -18 -27 -20
2 -2 39 -24 82 -49 l79 -45 -2 -70 -2 -69 58 -34 58 -34 5 -86 5 -87 60 35
c33 19 59 39 57 45 -1 6 2 8 8 4 6 -4 40 10 75 31 l65 38 0 52 c0 48 2 52 30
64 17 7 30 16 30 21 0 4 -29 24 -64 44 -56 31 -65 40 -68 67 -3 35 -28 52 -28
19 0 -12 -4 -21 -10 -21 -25 0 -6 38 30 60 44 27 47 32 25 50 -8 7 -15 25 -15
41 0 18 -7 32 -19 39 -17 9 -20 6 -24 -22 l-4 -33 -1 34 c-1 19 -10 40 -19 47
-26 20 -31 17 -29 -15 2 -22 -2 -28 -14 -23 -19 6 -80 63 -80 74 0 15 24 8 48
-14 l25 -23 -5 32 -5 33 36 -21 c20 -12 60 -35 88 -51 29 -17 56 -35 60 -40 3
-7 1 -8 -5 -4 -9 5 -12 -11 -12 -57 l0 -65 58 -34 57 -34 -1 -57 c0 -31 2 -57
4 -57 3 0 263 149 271 156 1 1 0 7 -4 13 -4 8 -12 8 -26 1 -10 -6 -19 -8 -19
-6 0 3 9 10 19 16 16 8 30 4 68 -18 26 -16 84 -48 128 -71 44 -24 88 -53 97
-65 24 -29 22 -70 -4 -100 -18 -19 -1286 -749 -1423 -818 -53 -27 -139 -40
-184 -28 -22 6 -141 68 -263 139 -227 131 -268 164 -268 216 0 31 33 70 85
101 l44 26 3 98 3 99 95 -55 c87 -51 146 -92 93 -65 -22 11 -23 10 -23 -39 0
-51 6 -60 28 -38 6 6 15 9 18 5 4 -3 -5 -12 -20 -18 -15 -7 -25 -16 -24 -21 2
-4 28 -23 58 -41 l55 -33 -2 -58 c-1 -31 2 -56 6 -54 49 20 268 155 268 165 0
16 -3 16 -28 3 -43 -23 -15 1 40 35 l60 37 -42 23 c-159 85 -175 106 -107 144
22 12 40 25 40 29 0 4 -27 22 -60 40 l-60 33 0 66 0 66 23 -21 c12 -11 63 -42
112 -68 50 -25 95 -50 101 -55 7 -6 20 -3 34 9 l22 18 -84 47 c-46 25 -101 58
-123 71 l-40 24 26 12 c23 11 36 6 136 -54 133 -79 134 -80 157 -63 18 13 17
15 -15 34 -62 36 -222 129 -385 222 -170 97 -210 128 -218 174 -8 43 12 74 68
109 28 17 68 42 88 56 l37 24 0 114 c0 63 -2 114 -6 114 -3 0 -61 -31 -128
-70 -206 -118 -225 -125 -335 -125 l-95 0 -112 65 -113 64 0 48 0 49 -26 -14
c-23 -12 -26 -20 -28 -70 0 -32 0 -57 2 -57 2 0 12 5 24 11 11 6 22 8 25 6 3
-3 -7 -12 -22 -20 -24 -12 -27 -20 -29 -70 0 -32 0 -57 2 -57 1 0 13 7 26 15
20 13 24 13 42 -1 19 -15 19 -15 -1 -10 -11 3 -31 -1 -44 -8 -20 -11 -23 -21
-25 -69 0 -32 0 -57 2 -57 1 0 14 7 28 17 19 12 24 22 19 40 -3 12 -3 23 0 23
18 0 361 -209 381 -232 29 -35 33 -101 8 -137 -18 -25 -116 -91 -135 -91 -21
0 -159 84 -159 97 0 6 -32 -8 -71 -32 l-71 -43 -145 84 c-79 46 -147 84 -149
84 -2 0 -4 -24 -4 -54 l0 -54 143 -82 c78 -45 146 -82 152 -83 5 -1 9 14 9 33
-1 27 0 29 3 8 2 -16 7 -28 10 -28 3 0 32 14 64 32 41 23 59 39 61 55 3 22 4
22 65 -14 35 -21 59 -40 55 -44 -4 -4 -52 -34 -107 -66 l-101 -60 -254 148
c-140 81 -253 151 -251 155 3 5 50 35 105 67 85 50 103 57 123 48 28 -13 56
-4 49 16 -3 8 -6 39 -6 69 l0 55 -30 -18 c-19 -11 -30 -25 -30 -40 0 -13 -9
-27 -21 -34 -21 -11 -21 -10 -5 12 25 37 19 39 -29 12 -33 -18 -45 -31 -45
-48 0 -19 -17 -33 -90 -75 -97 -56 -111 -68 -87 -81 12 -7 15 -36 16 -164 l1
-156 -23 12 c-71 38 -565 325 -579 337 -15 13 -18 33 -18 138 l0 123 125 71
124 71 0 105 0 105 -32 -20 c-18 -10 -66 -39 -107 -63 -56 -33 -75 -50 -75
-65 -1 -26 -26 -47 -118 -97 -39 -22 -64 -42 -60 -48 3 -7 1 -8 -6 -4 -15 10
-123 -52 -115 -66 4 -6 2 -8 -4 -5 -5 4 -17 5 -25 1 -13 -4 -15 -63 -15 -417
l0 -412 31 -35 32 -35 -32 29 -33 30 0 -72 c0 -59 3 -70 15 -66 8 4 12 11 8
17 -3 5 -1 7 5 3 6 -3 50 16 98 44 48 27 89 50 91 50 2 0 22 12 44 26 23 14
43 23 45 21 3 -3 -66 -46 -153 -96 -143 -82 -163 -91 -209 -91 -43 0 -53 -3
-57 -20 -5 -18 0 -20 57 -20 61 0 68 3 217 89 153 88 154 89 155 125 1 20 -3
36 -7 36 -5 0 -9 6 -9 13 0 7 -16 28 -35 47 -36 35 -43 50 -24 50 18 0 89 -60
89 -76 0 -8 5 -14 10 -14 22 0 8 38 -25 70 -39 38 -43 50 -17 50 15 0 17 8 14
65 -2 36 -2 65 1 65 2 0 50 -27 107 -60 l104 -59 -3 -55 c-2 -49 0 -55 26 -74
15 -11 37 -22 48 -24 18 -4 17 -6 -7 -16 -15 -6 -34 -23 -44 -37 -15 -23 -15
-27 -1 -49 48 -73 237 -53 237 25 0 24 -8 34 -37 52 l-37 21 32 10 c28 8 36 6
58 -15 38 -35 47 -58 45 -109 -1 -35 -8 -51 -29 -71 -15 -14 -321 -196 -681
-403 -459 -265 -677 -385 -730 -403 -96 -32 -198 -34 -262 -6 -51 23 -623 352
-687 396 -59 40 -82 80 -82 144 0 44 5 58 28 84 l28 31 44 -15 45 -15 -37 -15
c-101 -42 -17 -140 106 -124 99 14 129 97 46 129 l-25 10 25 10 c64 24 91 93
56 143 -13 19 -8 23 75 69 l87 50 1 139 c1 76 -2 136 -6 134 -215 -119 -1012
-584 -1020 -595 -19 -23 -16 -77 5 -100 25 -29 2306 -1342 2331 -1342 28 0
3778 2164 3809 2198 25 26 25 69 1 99 -7 7 -72 48 -146 89 -73 42 -135 80
-138 84 -3 4 9 13 25 20 16 7 28 16 25 20 -3 4 -43 29 -90 56 -101 58 -109 79
-45 115 22 13 37 26 33 30 -5 4 -59 37 -121 73 -129 75 -107 76 -239 -5 l-63
-39 -55 31 -55 31 -2 317 -3 318 -132 -76z m17 -140 l0 -70 -59 -35 c-32 -20
-61 -36 -65 -36 -3 0 -6 31 -6 69 l0 69 58 36 c31 19 60 36 65 36 4 0 7 -31 7
-69z m0 -219 c0 -66 -1 -68 -32 -86 -18 -10 -48 -28 -65 -38 l-33 -20 0 74 0
73 53 32 c75 45 77 44 77 -35z m-2474 -108 c-30 -21 -45 -16 -16 6 14 10 27
16 30 13 3 -2 -4 -11 -14 -19z m1710 -30 c-22 -16 -36 -18 -36 -6 0 11 43 32
50 25 3 -3 -4 -11 -14 -19z m-1792 -19 c-22 -16 -34 -19 -34 -7 0 10 43 32 49
26 3 -2 -4 -11 -15 -19z m2554 -57 l-3 -72 -55 -32 c-30 -18 -58 -33 -62 -34
-5 0 -8 31 -8 70 l0 69 58 35 c31 19 61 35 65 35 4 1 7 -31 5 -71z m-847 31
c-13 -11 -27 -17 -30 -13 -7 7 28 34 43 34 6 -1 0 -10 -13 -21z m-1790 -20
c-13 -11 -26 -17 -29 -14 -7 6 29 34 43 34 6 0 -1 -9 -14 -20z m-46 -8 c3 -5
2 -12 -3 -15 -5 -3 -9 1 -9 9 0 17 3 19 12 6z m1755 -16 c-33 -19 -50 -18 -26
0 11 8 27 15 35 15 10 -1 7 -6 -9 -15z m-1775 -14 c3 -5 2 -12 -3 -15 -5 -3
-9 1 -9 9 0 17 3 19 12 6z m1305 -11 c14 -11 22 -20 18 -20 -14 0 -58 23 -58
32 0 13 13 9 40 -12z m1517 -32 c-2 -13 -4 -5 -4 17 -1 22 1 32 4 23 2 -10 2
-28 0 -40z m-1133 7 c-22 -16 -34 -19 -34 -7 0 10 43 32 49 26 3 -2 -4 -11
-15 -19z m-1749 6 c3 -5 2 -12 -3 -15 -5 -3 -9 1 -9 9 0 17 3 19 12 6z m73
-67 l3 -59 -46 -29 c-62 -38 -75 -31 -75 41 l0 58 48 27 c26 15 52 26 57 24 6
-1 11 -29 13 -62z m1372 41 c16 -9 19 -14 9 -15 -8 0 -24 7 -35 15 -24 18 -7
19 26 0z m-1527 -20 c-3 -9 -8 -14 -10 -11 -3 3 -2 9 2 15 9 16 15 13 8 -4z
m1753 0 c-11 -8 -25 -15 -30 -15 -6 0 -2 7 8 15 11 8 25 15 30 15 6 0 2 -7 -8
-15z m-130 -42 c-7 -7 -46 16 -46 28 0 5 11 2 25 -7 14 -9 24 -19 21 -21z m55
-3 c-11 -6 -9 -11 8 -21 29 -19 27 -31 -4 -17 -14 6 -25 15 -25 20 0 5 -4 6
-10 3 -5 -3 -10 -2 -10 3 0 10 42 32 50 25 2 -2 -2 -8 -9 -13z m-1667 -6 c8
-22 7 -97 -2 -109 -4 -6 -28 -23 -53 -38 -57 -32 -69 -24 -69 49 l0 52 53 31
c61 36 63 36 71 15z m2906 12 c0 -2 -7 -6 -15 -10 -8 -3 -15 -1 -15 4 0 6 7
10 15 10 8 0 15 -2 15 -4z m-55 -26 c-3 -5 -12 -10 -18 -10 -7 0 -6 4 3 10 19
12 23 12 15 0z m509 -12 c-5 -8 -2 -9 9 -5 24 9 21 0 -4 -14 -15 -8 -19 -8
-15 0 9 14 0 14 -25 1 -10 -6 -19 -8 -19 -6 0 5 49 34 58 36 2 0 0 -5 -4 -12z
m-1590 -43 c15 -11 16 -15 5 -15 -8 0 -24 7 -35 15 -14 11 -15 14 -4 14 8 0
24 -6 34 -14z m1001 5 c-3 -5 -11 -10 -16 -10 -6 0 -7 5 -4 10 3 6 11 10 16
10 6 0 7 -4 4 -10z m565 5 c0 -2 -13 -11 -30 -20 -38 -19 -40 -11 -2 9 31 17
32 18 32 11z m-120 -31 c0 -2 -9 0 -20 6 -11 6 -20 13 -20 16 0 2 9 0 20 -6
11 -6 20 -13 20 -16z m-3072 -50 l3 -60 -51 -28 c-27 -15 -54 -24 -60 -21 -5
3 -10 32 -10 64 l0 58 48 26 c26 15 52 25 57 23 6 -1 11 -30 13 -62z m2587 56
c-3 -5 -12 -10 -18 -10 -7 0 -6 4 3 10 19 12 23 12 15 0z m-884 -30 c13 -10
19 -19 13 -20 -7 0 -22 9 -35 20 -13 10 -19 19 -13 20 7 0 22 -9 35 -20z
m1414 11 c-17 -15 -110 -65 -99 -52 10 11 93 60 104 61 2 0 0 -4 -5 -9z
m-3259 -74 c3 -13 4 -41 2 -63 -2 -32 -10 -43 -43 -66 -22 -15 -49 -27 -60
-25 -17 2 -20 11 -23 58 l-3 57 53 31 c64 37 66 37 74 8z m1919 -25 c-6 -7
-34 29 -34 43 0 6 9 -1 20 -14 11 -13 17 -26 14 -29z m1555 -7 c0 -2 -10 -9
-22 -15 -22 -11 -22 -10 -4 4 21 17 26 19 26 11z m-1536 -57 c4 -17 2 -28 -4
-28 -5 0 -10 14 -10 32 0 36 4 35 14 -4z m1486 27 c0 -2 -13 -11 -30 -20 -38
-19 -40 -11 -2 9 31 17 32 18 32 11z m-3282 -73 l3 -61 -51 -26 c-28 -14 -55
-23 -60 -20 -6 4 -10 32 -10 64 l0 58 48 26 c26 15 52 25 57 23 6 -1 11 -30
13 -64z m3207 28 c-3 -5 -12 -10 -18 -10 -7 0 -6 4 3 10 19 12 23 12 15 0z
m-2465 -36 c0 -2 -9 0 -20 6 -11 6 -20 13 -20 16 0 2 9 0 20 -6 11 -6 20 -13
20 -16z m-880 -79 l0 -52 -50 -27 c-67 -37 -80 -31 -80 38 l0 56 52 29 c64 37
78 29 78 -44z m1921 43 c-4 -12 -13 -24 -19 -26 -7 -2 -7 5 1 22 15 32 30 35
18 4z m-1711 -29 c0 -5 -11 -3 -25 3 -14 6 -25 15 -25 19 0 5 11 3 25 -3 14
-6 25 -15 25 -19z m860 -45 c0 -2 -13 2 -30 11 -16 9 -30 18 -30 21 0 2 14 -2
30 -11 17 -9 30 -18 30 -21z m-789 6 c31 -25 12 -26 -21 0 -14 11 -20 20 -14
20 7 0 22 -9 35 -20z m-143 -55 l2 -60 -46 -27 c-68 -42 -74 -39 -74 35 l0 62
43 27 c62 39 72 34 75 -37z m1727 45 c-10 -11 -23 -20 -28 -20 -6 0 -2 9 8 20
10 11 23 20 28 20 6 0 2 -9 -8 -20z m-725 -36 c0 -2 -9 0 -20 6 -11 6 -20 13
-20 16 0 2 9 0 20 -6 11 -6 20 -13 20 -16z m-776 1 c14 -11 16 -15 5 -15 -8 0
-23 7 -33 15 -14 11 -16 15 -5 15 8 0 23 -7 33 -15z m1420 -20 c-22 -16 -34
-19 -34 -7 0 10 43 32 49 26 3 -2 -4 -11 -15 -19z m1311 6 c3 -5 2 -12 -3 -15
-5 -3 -9 1 -9 9 0 17 3 19 12 6z m-1885 -27 c0 -2 -9 0 -20 6 -11 6 -20 13
-20 16 0 2 9 0 20 -6 11 -6 20 -13 20 -16z m-1216 0 c8 -22 7 -97 -2 -110 -12
-18 -93 -56 -108 -50 -10 4 -14 22 -14 60 l0 56 53 30 c60 35 63 35 71 14z
m462 -21 c-7 -7 -46 16 -46 28 0 5 11 2 25 -7 14 -9 24 -19 21 -21z m2574 24
c0 -2 -10 -12 -22 -23 l-23 -19 19 23 c18 21 26 27 26 19z m-1310 -15 c0 -5
-11 -14 -25 -20 -31 -14 -33 1 -2 16 28 14 27 13 27 4z m-390 -58 c0 -2 -9 0
-20 6 -11 6 -20 13 -20 16 0 2 9 0 20 -6 11 -6 20 -13 20 -16z m1620 22 c0 -2
-8 -10 -17 -17 -16 -13 -17 -12 -4 4 13 16 21 21 21 13z m-2813 -13 c-4 -3 -1
-13 6 -22 11 -14 10 -14 -5 -2 -16 12 -16 31 -1 31 4 0 3 -3 0 -7z m1493 -8
c-7 -9 -15 -13 -17 -11 -7 7 7 26 19 26 6 0 6 -6 -2 -15z m-843 -87 c-2 -18
-4 -4 -4 32 0 36 2 50 4 33 2 -18 2 -48 0 -65z m-686 69 c-6 -8 -7 -18 -3 -22
4 -5 1 -5 -6 -1 -10 6 -10 11 -1 22 6 8 14 14 16 14 3 0 0 -6 -6 -13z m-30
-24 c13 -16 12 -17 -3 -4 -17 13 -22 21 -14 21 2 0 10 -8 17 -17z m49 -3 c-6
-11 -13 -20 -16 -20 -2 0 0 9 6 20 6 11 13 20 16 20 2 0 0 -9 -6 -20z m-112
-45 c-3 -3 -9 2 -12 12 -6 14 -5 15 5 6 7 -7 10 -15 7 -18z m685 11 c25 -19
21 -27 -8 -14 -14 6 -25 15 -25 20 0 12 12 9 33 -6z m-627 -13 c-3 -4 10 -23
30 -44 21 -21 34 -44 32 -55 -4 -20 -28 -32 -28 -13 0 7 -17 30 -37 51 -36 37
-36 38 -17 53 20 15 32 20 20 8z m-131 -22 c3 -5 2 -12 -3 -15 -5 -3 -9 1 -9
9 0 17 3 19 12 6z m2210 -1 c-8 -13 1 -13 26 0 10 6 19 8 19 6 0 -3 -14 -13
-31 -22 -21 -10 -29 -11 -23 -3 5 9 2 11 -12 6 -18 -7 -18 -7 0 8 23 17 30 19
21 5z m-1375 -10 c8 -5 12 -11 9 -14 -3 -3 -14 1 -25 9 -21 16 -8 20 16 5z
m-726 -39 c22 -23 36 -46 34 -57 -4 -22 -28 -31 -28 -10 0 9 -16 31 -37 49
-21 20 -33 39 -29 45 11 18 19 15 60 -27z m1406 24 c0 -2 -13 -11 -30 -20 -38
-19 -40 -11 -2 9 31 17 32 18 32 11z m630 -10 c0 -2 -10 -9 -22 -15 -22 -11
-22 -10 -4 4 21 17 26 19 26 11z m40 0 c0 -2 -10 -9 -22 -15 -22 -11 -22 -10
-4 4 21 17 26 19 26 11z m-2126 -44 c22 -23 36 -46 34 -57 -4 -20 -28 -32 -28
-13 0 7 -16 30 -36 50 -20 21 -33 42 -30 48 11 17 20 13 60 -28z m793 -163
c-1 -40 -3 -10 -3 67 0 77 1 110 3 73 2 -37 2 -100 0 -140z m1283 177 c0 -2
-13 -11 -30 -20 -38 -19 -40 -11 -2 9 31 17 32 18 32 11z m-2126 -44 c22 -23
36 -46 34 -57 -4 -22 -28 -31 -28 -10 0 9 -16 31 -37 49 -21 20 -33 39 -29 45
11 18 19 15 60 -27z m-1300 -46 c-22 -16 -34 -19 -34 -7 0 10 43 32 49 26 3
-2 -4 -11 -15 -19z m1251 -24 c3 -5 2 -12 -3 -15 -5 -3 -9 1 -9 9 0 17 3 19
12 6z m-1335 -21 c-14 -10 -27 -16 -30 -13 -6 6 30 33 44 33 6 0 0 -9 -14 -20z
m3700 15 c0 -2 -10 -9 -22 -15 -22 -11 -22 -10 -4 4 21 17 26 19 26 11z m-50
-30 c0 -2 -10 -9 -22 -15 -22 -11 -22 -10 -4 4 21 17 26 19 26 11z m-3710 -15
c0 -5 -5 -10 -11 -10 -5 0 -7 5 -4 10 3 6 8 10 11 10 2 0 4 -4 4 -10z m2940
-14 c0 -5 -69 -46 -78 -46 -6 1 69 50 76 50 1 0 2 -2 2 -4z m-674 -101 c-11
-8 -22 -12 -25 -9 -6 6 19 24 34 24 6 -1 1 -7 -9 -15z m50 -7 c4 -6 -6 -22
-25 -37 -17 -14 -31 -32 -31 -38 0 -7 -4 -13 -10 -13 -19 0 -10 38 18 68 30
34 37 38 48 20z m-2566 -16 c0 -5 -11 -14 -25 -20 -31 -14 -33 1 -2 16 28 14
27 13 27 4z m2440 -22 c-33 -26 -52 -25 -21 0 13 11 28 20 35 20 6 0 0 -9 -14
-20z m170 12 c0 -5 -13 -21 -30 -37 -16 -16 -30 -35 -30 -42 0 -8 -4 -11 -10
-8 -18 11 -11 38 17 67 26 27 53 37 53 20z m13 -67 c-42 -48 -53 -53 -53 -28
0 24 59 83 76 76 11 -4 5 -17 -23 -48z m-2723 15 c-14 -10 -27 -16 -30 -13 -6
6 30 33 44 33 6 0 0 -9 -14 -20z m2771 -24 c-17 -18 -31 -37 -31 -44 0 -7 -7
-12 -15 -12 -8 0 -15 8 -15 17 0 24 59 83 77 76 11 -4 7 -13 -16 -37z m-311
19 c-14 -7 -27 -11 -30 -9 -6 7 22 24 40 23 9 0 5 -6 -10 -14z m374 -13 c3 -5
-8 -22 -24 -37 -17 -16 -30 -35 -30 -42 0 -18 -19 -16 -27 3 -3 9 7 28 28 50
34 35 44 40 53 26z m466 -7 c0 -2 -13 -11 -30 -20 -38 -19 -40 -11 -2 9 31 17
32 18 32 11z m-3380 -20 c-33 -19 -50 -18 -26 0 11 8 27 15 35 15 10 -1 7 -6
-9 -15z m2454 -10 c-29 -22 -42 -17 -15 6 13 11 26 17 29 14 3 -3 -3 -12 -14
-20z m502 14 c4 -7 -7 -22 -25 -36 -17 -13 -31 -31 -31 -39 0 -19 -19 -18 -27
2 -3 9 7 28 28 50 35 37 44 40 55 23z m-262 -23 c-10 -8 -17 -16 -14 -18 3 -3
135 -79 294 -171 l289 -167 143 82 c134 78 143 85 137 108 -6 23 -5 24 13 10
29 -23 34 -32 34 -66 0 -19 -8 -38 -22 -51 -26 -24 -1355 -783 -1437 -821 -70
-32 -159 -34 -216 -5 -119 62 -442 257 -457 276 -26 33 -23 99 5 124 24 22
149 96 200 118 26 12 28 14 10 15 -12 0 -27 9 -33 19 -16 30 -12 32 24 10 40
-23 115 -27 161 -8 17 7 33 12 37 11 5 -1 7 1 7 6 -1 4 -1 21 0 38 1 29 9 36
90 83 89 50 90 50 125 36 31 -13 36 -20 36 -49 0 -26 5 -36 20 -41 29 -9 40 2
40 41 0 24 5 36 18 40 39 12 67 34 70 54 l4 22 -32 -23 c-24 -18 -44 -24 -88
-24 -97 1 -147 48 -107 101 21 27 18 37 -6 24 -11 -7 -23 -9 -26 -7 -7 7 36
29 45 23 5 -3 21 8 36 25 39 41 72 38 123 -12 l42 -40 70 40 c38 23 73 41 77
41 4 0 25 -8 46 -17 33 -14 38 -21 38 -49 0 -33 18 -48 45 -38 9 4 15 19 15
39 0 27 5 35 28 43 16 5 36 17 45 27 20 19 23 85 5 103 -6 6 -10 13 -7 15 2 2
20 13 39 25 39 24 65 30 34 8z m306 -4 c0 -5 -13 -21 -30 -37 -16 -16 -30 -35
-30 -42 0 -19 -17 -16 -24 4 -4 11 4 28 26 50 30 31 58 43 58 25z m546 -4 c5
4 6 3 1 -2 -4 -5 2 -20 14 -32 13 -14 19 -29 15 -40 -5 -13 -14 -8 -45 27 -25
28 -35 46 -28 51 6 4 16 3 23 -2 6 -6 15 -6 20 -2z m-3616 -6 c0 -5 -11 -14
-25 -20 -31 -14 -33 1 -2 16 28 14 27 13 27 4z m2460 -10 c0 -5 -11 -14 -25
-20 -29 -13 -33 -5 -7 14 20 15 32 18 32 6z m621 -37 c-17 -15 -31 -33 -31
-41 0 -8 -4 -14 -10 -14 -20 0 -9 35 22 67 20 21 35 30 41 24 6 -6 -2 -20 -22
-36z m503 6 c17 -18 26 -36 23 -45 -8 -19 -27 -21 -27 -3 0 8 -11 24 -25 37
-14 13 -25 27 -25 32 0 17 28 7 54 -21z m99 15 c25 -19 21 -27 -8 -14 -14 6
-25 15 -25 20 0 12 12 9 33 -6z m-533 -14 c0 -5 -13 -21 -30 -37 -16 -16 -30
-35 -30 -42 0 -8 -4 -11 -10 -8 -18 11 -11 38 17 67 26 27 53 37 53 20z m390
-27 c25 -25 31 -38 23 -46 -8 -8 -21 0 -46 27 -32 35 -38 54 -18 54 4 0 22
-16 41 -35z m-3658 -2 c-10 -4 -10 -8 -1 -19 14 -17 5 -18 -23 -3 -21 11 -21
12 3 24 13 8 26 11 29 8 3 -3 -1 -8 -8 -10z m2484 2 c-11 -8 -25 -15 -30 -15
-6 0 -2 7 8 15 11 8 25 15 30 15 6 0 2 -7 -8 -15z m829 6 c3 -6 -8 -20 -25
-32 -16 -13 -30 -31 -30 -41 0 -22 -18 -24 -27 -2 -3 9 7 28 28 50 35 36 44
40 54 25z m332 -75 c-8 -19 -27 -21 -27 -3 0 7 -14 26 -30 42 -22 21 -27 31
-18 37 18 11 83 -55 75 -76z m238 62 c14 -6 25 -15 25 -20 0 -13 -13 -9 -40
12 -28 22 -23 25 15 8z m-525 -15 c0 -2 -13 -16 -30 -30 -16 -13 -30 -31 -30
-39 0 -19 -19 -18 -27 2 -7 19 55 83 75 76 6 -2 12 -6 12 -9z m219 -27 c18
-19 30 -39 27 -45 -10 -15 -26 -14 -26 2 0 7 -13 23 -30 35 -16 13 -30 27 -30
32 0 20 27 9 59 -24z m-1159 16 c0 -9 -44 -32 -58 -32 -9 1 41 39 51 40 4 0 7
-4 7 -8z m974 -10 c3 -5 -8 -22 -24 -37 -17 -16 -30 -35 -30 -42 0 -18 -19
-16 -27 3 -3 9 7 28 28 50 34 35 44 40 53 26z m146 -27 c32 -33 33 -36 17 -52
-14 -15 -17 -15 -17 -2 0 8 -13 28 -30 44 -26 25 -31 45 -11 45 4 0 22 -16 41
-35z m436 11 c10 -8 16 -17 13 -20 -3 -4 -17 2 -30 13 -27 23 -13 28 17 7z
m-3870 -20 c10 -8 16 -17 13 -20 -3 -4 -17 2 -30 13 -27 23 -13 28 17 7z
m3994 -56 c0 -4 -11 -12 -25 -18 -14 -6 -25 -8 -25 -3 0 5 6 12 13 15 10 5 10
7 0 12 -7 3 -13 10 -13 15 0 5 11 3 25 -3 14 -6 25 -14 25 -18z m-3910 5 c16
-19 0 -19 -26 0 -16 12 -16 14 -3 15 9 0 22 -7 29 -15z m73 -39 c25 -19 21
-27 -8 -14 -14 6 -25 15 -25 20 0 12 12 9 33 -6z m1891 -21 c-22 -16 -34 -19
-34 -7 0 10 43 32 49 26 3 -2 -4 -11 -15 -19z m1826 -15 c-33 -26 -52 -25 -21
0 13 11 28 20 35 20 6 0 0 -9 -14 -20z m-3634 -15 c10 -8 14 -15 8 -15 -5 0
-19 7 -30 15 -10 8 -14 15 -8 15 5 0 19 -7 30 -15z m1725 -16 c-13 -11 -27
-17 -30 -13 -7 7 28 34 43 34 6 -1 0 -10 -13 -21z m1835 -14 c-11 -8 -27 -15
-35 -15 -11 0 -10 4 5 15 10 8 26 14 34 14 11 0 10 -3 -4 -14z m-3466 -26 c0
-5 -11 -3 -25 3 -14 6 -25 15 -25 19 0 5 11 3 25 -3 14 -6 25 -15 25 -19z
m1565 1 c-3 -5 -13 -10 -21 -10 -8 0 -12 5 -9 10 3 6 13 10 21 10 8 0 12 -4 9
-10z m1815 -25 c-33 -19 -50 -18 -26 0 11 8 27 15 35 15 10 -1 7 -6 -9 -15z
m-3314 -10 c10 -8 14 -15 8 -15 -5 0 -19 7 -30 15 -10 8 -14 15 -8 15 5 0 19
-7 30 -15z m1467 -17 c-2 -5 -17 -8 -33 -8 -16 0 -31 3 -33 8 -3 4 12 7 33 7
21 0 36 -3 33 -7z m1767 -18 c-33 -26 -52 -25 -21 0 13 11 28 20 35 20 6 0 0
-9 -14 -20z m-3140 -22 c0 -12 -12 -9 -32 6 -26 19 -22 27 7 14 14 -6 25 -15
25 -20z m1235 2 c-9 -15 -45 -32 -45 -22 0 5 10 14 23 20 29 14 29 14 22 2z
m154 -5 c-5 -5 -27 -10 -49 -10 -22 0 -44 5 -49 10 -7 7 11 10 49 10 38 0 56
-3 49 -10z m1677 -20 c-11 -8 -27 -15 -35 -15 -11 0 -10 4 5 15 10 8 26 14 34
14 11 0 10 -3 -4 -14z m-3000 -10 c10 -8 14 -15 8 -15 -5 0 -19 7 -30 15 -10
8 -14 15 -8 15 5 0 19 -7 30 -15z m1274 -25 c14 0 42 9 63 19 40 21 48 14 17
-14 -41 -37 -147 -29 -169 13 -10 19 -10 19 26 1 21 -11 49 -19 63 -19z m-194
5 c-11 -8 -25 -15 -30 -15 -6 0 -2 7 8 15 11 8 25 15 30 15 6 0 2 -7 -8 -15z
m-986 -37 c0 -12 -12 -9 -32 6 -26 19 -22 27 7 14 14 -6 25 -15 25 -20z m2816
17 c-11 -8 -25 -15 -30 -15 -6 0 -2 7 8 15 11 8 25 15 30 15 6 0 2 -7 -8 -15z
m-1896 -13 c0 -10 -50 -35 -57 -28 -3 2 8 11 24 20 34 18 33 18 33 8z m1820
-32 c-33 -26 -52 -25 -21 0 13 11 28 20 35 20 6 0 0 -9 -14 -20z m-2674 -5
c16 -12 16 -14 3 -15 -9 0 -22 7 -29 15 -16 19 0 19 26 0z m754 -25 c-33 -26
-52 -25 -21 0 13 11 28 20 35 20 6 0 0 -9 -14 -20z m-665 -30 c8 -13 -1 -13
-26 0 -10 6 -19 15 -19 21 0 11 35 -5 45 -21z m2511 15 c-11 -8 -27 -15 -35
-15 -11 0 -10 4 5 15 10 8 26 14 34 14 11 0 10 -3 -4 -14z m-1926 -30 c-7 -8
-20 -15 -28 -15 -13 0 -12 3 4 15 25 19 40 19 24 0z m1836 -21 c-30 -21 -45
-16 -16 6 14 10 27 16 30 13 3 -2 -4 -11 -14 -19z m-2352 1 c11 -8 15 -15 9
-15 -19 0 -43 12 -43 21 0 13 12 11 34 -6z m432 -31 c-30 -21 -45 -16 -16 6
14 10 27 16 30 13 3 -2 -4 -11 -14 -19z m-340 -31 c-7 -7 -46 16 -46 28 0 5
11 2 25 -7 14 -9 24 -19 21 -21z m2178 12 c-22 -16 -34 -19 -34 -7 0 10 43 32
49 26 3 -2 -4 -11 -15 -19z m-1904 -13 c0 -5 -11 -14 -25 -20 -29 -13 -33 -5
-7 14 20 15 32 18 32 6z m-210 -27 c16 -9 19 -14 9 -15 -8 0 -24 7 -35 15 -24
18 -7 19 26 0z m2050 7 c0 -5 -11 -14 -25 -20 -29 -13 -33 -5 -7 14 20 15 32
18 32 6z m-1935 -38 c-11 -8 -19 -20 -17 -25 3 -12 -5 -11 -29 1 -22 12 -26
32 -5 24 8 -3 23 -1 33 5 28 16 41 12 18 -5z m1841 -20 c-30 -21 -45 -16 -16
6 14 10 27 16 30 13 3 -2 -4 -11 -14 -19z m-1796 -39 c16 -9 19 -14 9 -15 -8
0 -24 7 -35 15 -24 18 -7 19 26 0z m1714 -10 c-22 -16 -34 -19 -34 -7 0 10 43
32 49 26 3 -2 -4 -11 -15 -19z m-1628 -40 c24 -18 7 -19 -26 0 -16 9 -19 14
-9 15 8 0 24 -7 35 -15z m1564 7 c0 -5 -11 -14 -25 -20 -29 -13 -33 -5 -7 14
20 15 32 18 32 6z m-1494 -46 c10 -8 17 -17 14 -19 -3 -3 -16 3 -30 13 -29 22
-14 27 16 6z m1400 -11 c-11 -8 -25 -15 -30 -15 -6 0 -2 7 8 15 11 8 25 15 30
15 6 0 2 -7 -8 -15z m-1310 -40 c14 -11 15 -14 4 -14 -8 0 -24 6 -34 14 -15
11 -16 15 -5 15 8 0 24 -7 35 -15z m1228 -10 c-22 -16 -34 -19 -34 -7 0 10 43
32 49 26 3 -2 -4 -11 -15 -19z m-1158 -29 c10 -8 16 -17 13 -20 -3 -4 -17 2
-30 13 -27 23 -13 28 17 7z m1094 -4 c0 -5 -11 -14 -25 -20 -29 -13 -33 -5 -7
14 20 15 32 18 32 6z m-1006 -47 c15 -11 16 -15 5 -15 -8 0 -24 7 -35 15 -14
11 -15 14 -4 14 8 0 24 -6 34 -14z m912 -10 c-11 -8 -25 -15 -30 -15 -6 0 -2
7 8 15 11 8 25 15 30 15 6 0 2 -7 -8 -15z m-842 -30 c11 -8 17 -17 14 -20 -3
-3 -16 3 -29 14 -27 23 -14 28 15 6z m760 -20 c-22 -16 -34 -19 -34 -7 0 10
43 32 49 26 3 -2 -4 -11 -15 -19z m-678 -30 c10 -8 14 -15 8 -15 -5 0 -19 7
-30 15 -10 8 -14 15 -8 15 5 0 19 -7 30 -15z m614 -3 c0 -5 -11 -14 -25 -20
-29 -13 -33 -5 -7 14 20 15 32 18 32 6z m-537 -36 c25 -19 21 -27 -8 -14 -14
6 -25 15 -25 20 0 12 12 9 33 -6z m443 -21 c-11 -8 -25 -15 -30 -15 -6 0 -2 7
8 15 11 8 25 15 30 15 6 0 2 -7 -8 -15z m-360 -30 c10 -8 14 -15 8 -15 -5 0
-19 7 -30 15 -10 8 -14 15 -8 15 5 0 19 -7 30 -15z m278 -20 c-22 -16 -34 -19
-34 -7 0 10 43 32 49 26 3 -2 -4 -11 -15 -19z m-197 -31 c-7 -7 -37 7 -37 17
0 6 9 5 21 -1 11 -7 19 -14 16 -16z m87 -31 c-10 -7 -21 -13 -24 -13 -3 0 -14
6 -24 13 -15 11 -12 12 24 12 36 0 39 -1 24 -12z"/>
<path d="M4272 2508 c6 -17 57 -23 72 -8 8 9 6 11 -11 6 -12 -4 -32 -2 -44 4
-17 10 -20 9 -17 -2z"/>
<path d="M4969 2468 c-51 -48 -69 -79 -69 -119 0 -39 18 -61 62 -78 20 -8 27
-18 30 -43 2 -28 7 -34 31 -36 25 -3 27 -1 27 32 0 32 4 37 44 55 74 32 72 92
-5 176 -50 54 -74 57 -120 13z"/>
<path d="M4246 2475 c13 -33 86 -41 122 -13 22 18 13 30 -10 14 -28 -20 -55
-20 -90 -2 -21 11 -26 11 -22 1z"/>
<path d="M4210 2442 c0 -21 38 -51 74 -58 61 -11 126 17 126 54 0 12 -4 11
-21 -4 -16 -14 -36 -19 -79 -19 -43 0 -63 5 -79 19 -12 11 -21 14 -21 8z"/>
<path d="M4610 2249 c0 -19 50 -24 73 -6 15 10 11 12 -28 12 -25 0 -45 -3 -45
-6z"/>
<path d="M4590 2223 c0 -20 26 -33 65 -33 39 0 65 13 65 33 0 5 -7 4 -15 -3
-8 -6 -30 -12 -50 -12 -20 0 -42 6 -50 12 -8 7 -15 8 -15 3z"/>
<path d="M4550 2192 c0 -25 46 -62 85 -67 48 -7 108 20 114 50 3 20 3 20 -18
1 -34 -31 -121 -29 -155 3 -14 14 -26 19 -26 13z"/>
<path d="M4531 2137 c-1 -24 43 -67 69 -67 16 0 20 -6 20 -35 0 -23 6 -37 18
-43 29 -15 42 -3 42 39 0 29 4 39 15 39 28 0 72 29 78 50 7 25 3 25 -33 -2
-51 -37 -185 -21 -203 24 -3 8 -6 6 -6 -5z"/>
<path d="M3867 2130 c6 -8 13 -31 15 -50 3 -30 7 -35 28 -35 21 0 25 5 28 34
2 19 11 41 20 49 15 11 14 12 -5 3 -29 -15 -66 -14 -83 2 -12 10 -12 9 -3 -3z"/>
<path d="M4181 2043 c-65 -73 -67 -108 -8 -136 68 -33 171 -15 197 34 9 16 7
27 -10 54 -67 109 -115 122 -179 48z m102 -5 c-6 -10 -45 -10 -60 0 -7 5 4 8
26 7 22 0 37 -3 34 -7z m-28 -38 c14 0 36 5 48 12 20 10 21 10 8 -5 -9 -11
-28 -17 -56 -17 -28 0 -47 6 -56 17 -13 15 -12 15 8 5 12 -7 34 -12 48 -12z
m0 -53 c25 0 56 8 71 18 19 12 25 13 22 3 -2 -7 -20 -21 -39 -31 -39 -21 -103
-16 -131 10 -27 24 -22 36 7 17 14 -9 46 -17 70 -17z"/>
<path d="M4140 1906 c0 -2 8 -10 18 -17 15 -13 16 -12 3 4 -13 16 -21 21 -21
13z"/>
<path d="M4335 1890 c-16 -11 -25 -20 -20 -20 10 0 64 39 55 40 -3 0 -18 -9
-35 -20z"/>
<path d="M4222 1823 c3 -33 6 -38 28 -38 22 0 25 5 28 38 3 35 2 37 -28 37
-30 0 -31 -2 -28 -37z"/>
<path d="M5152 4674 c-18 -12 -22 -25 -22 -70 l0 -55 30 16 c28 14 30 20 30
70 0 59 -4 63 -38 39z"/>
<path d="M5834 4674 c-18 -14 -18 -15 4 -4 12 6 22 13 22 15 0 8 -5 6 -26 -11z"/>
<path d="M5318 4642 c-25 -15 -28 -23 -28 -74 l0 -57 30 17 c28 16 30 21 30
75 0 31 -1 57 -2 56 -2 0 -15 -8 -30 -17z"/>
<path d="M5068 4627 c-37 -21 -38 -24 -38 -79 l0 -57 42 24 c42 24 43 25 43
80 1 30 -2 55 -5 55 -3 -1 -22 -11 -42 -23z"/>
<path d="M6063 4557 l-142 -82 -1 -77 c0 -79 9 -99 35 -78 11 9 15 34 15 86
l0 74 63 -39 64 -39 56 31 57 32 0 87 c0 49 -1 88 -2 87 -2 0 -67 -37 -145
-82z"/>
<path d="M6432 4575 l-2 -70 55 -32 c30 -18 55 -28 55 -23 0 5 -22 21 -50 36
l-49 27 -4 66 -3 66 -2 -70z"/>
<path d="M5714 4604 c-18 -14 -18 -15 4 -4 12 6 22 13 22 15 0 8 -5 6 -26 -11z"/>
<path d="M5238 4594 c-25 -13 -28 -20 -28 -69 0 -30 3 -55 8 -55 4 0 17 8 30
18 20 15 23 25 20 69 l-3 51 -27 -14z"/>
<path d="M5642 4564 c-23 -16 -29 -34 -12 -34 6 0 9 4 8 9 -2 5 6 17 17 25 26
20 16 21 -13 0z"/>
<path d="M5390 4552 c-21 -14 -25 -25 -25 -70 0 -28 1 -52 2 -52 1 0 14 5 28
12 23 10 25 17 25 70 0 32 -1 58 -2 58 -2 0 -14 -8 -28 -18z"/>
<path d="M5153 4548 c-20 -10 -23 -19 -23 -70 l0 -59 30 18 c27 16 30 22 30
70 0 56 -2 58 -37 41z"/>
<path d="M6592 4478 l-2 -66 51 -32 c28 -17 53 -29 56 -26 3 3 -18 17 -45 33
l-51 28 -4 65 -3 65 -2 -67z"/>
<path d="M5318 4512 c-25 -15 -28 -22 -28 -74 l0 -57 30 17 c28 16 30 21 30
75 0 31 -1 57 -2 57 -2 0 -15 -8 -30 -18z"/>
<path d="M5686 4523 c-11 -11 -6 -22 13 -28 10 -3 21 -15 24 -25 5 -21 27 -28
27 -9 0 15 -56 69 -64 62z"/>
<path d="M6260 4466 l0 -64 56 -32 c31 -17 58 -29 61 -27 2 3 -21 19 -52 37
l-57 32 4 59 c2 33 0 59 -4 59 -5 0 -8 -29 -8 -64z"/>
<path d="M5068 4497 c-37 -21 -38 -24 -38 -79 l0 -57 42 24 c42 24 43 25 43
80 1 30 -2 55 -5 55 -3 -1 -22 -11 -42 -23z"/>
<path d="M5592 4402 c3 -79 5 -87 23 -87 18 0 20 7 20 83 0 45 1 82 3 82 2 0
23 -12 48 -26 24 -14 44 -24 44 -21 0 12 -78 50 -108 53 l-33 2 3 -86z"/>
<path d="M5238 4464 c-25 -13 -28 -20 -28 -70 l0 -55 30 16 c28 14 30 20 30
70 0 30 -1 55 -2 55 -2 -1 -15 -8 -30 -16z"/>
<path d="M5158 4422 c-25 -15 -28 -22 -28 -75 l0 -58 30 18 c28 16 30 21 30
75 0 32 -1 58 -2 57 -2 0 -15 -8 -30 -17z"/>
<path d="M5390 4422 c-21 -14 -25 -25 -25 -70 0 -28 1 -52 2 -52 1 0 14 5 28
12 23 10 25 17 25 70 0 32 -1 58 -2 58 -2 0 -14 -8 -28 -18z"/>
<path d="M5747 4419 c7 -7 15 -10 18 -7 3 3 -2 9 -12 12 -14 6 -15 5 -6 -5z"/>
<path d="M6434 4366 l1 -69 55 -30 c30 -17 50 -24 43 -17 -7 7 -29 23 -50 34
-37 21 -38 24 -44 86 l-6 65 1 -69z"/>
<path d="M5318 4382 c-25 -15 -28 -23 -28 -69 0 -29 2 -53 5 -53 2 0 16 5 30
12 23 10 25 17 25 70 0 32 -1 58 -2 58 -2 0 -15 -8 -30 -18z"/>
<path d="M5750 4310 c0 -86 10 -114 31 -93 6 6 11 48 12 94 2 81 1 84 -20 85
-22 2 -23 -1 -23 -86z"/>
<path d="M5068 4367 c-36 -21 -38 -24 -38 -74 0 -29 3 -53 6 -53 4 0 23 10 44
21 36 21 37 23 36 75 0 30 -3 54 -6 54 -3 -1 -22 -11 -42 -23z"/>
<path d="M5233 4333 c-19 -13 -23 -25 -23 -69 l0 -55 30 16 c28 14 30 20 30
70 0 59 -3 62 -37 38z"/>
<path d="M6594 4272 l1 -73 53 -29 c28 -17 52 -27 52 -23 0 5 -22 21 -50 36
l-49 28 -4 67 -4 67 1 -73z"/>
<path d="M6260 4264 l0 -69 63 -33 c61 -32 55 -23 -13 21 -33 22 -35 26 -36
80 -1 32 -4 60 -8 64 -3 3 -6 -25 -6 -63z"/>
<path d="M5158 4292 c-25 -15 -28 -23 -28 -74 l0 -57 30 17 c28 16 30 21 30
75 0 31 -1 57 -2 56 -2 0 -15 -8 -30 -17z"/>
<path d="M5318 4252 c-25 -15 -28 -23 -28 -69 0 -57 6 -63 39 -35 19 14 22 26
19 69 l-3 52 -27 -17z"/>
<path d="M5068 4238 c-36 -21 -38 -24 -38 -75 0 -29 3 -53 8 -53 4 0 23 11 42
23 33 20 35 26 36 75 0 28 -3 52 -6 52 -3 0 -22 -10 -42 -22z"/>
<path d="M6432 4165 c-2 -58 1 -72 16 -81 9 -5 34 -20 55 -33 20 -12 37 -19
37 -14 0 4 -22 21 -50 36 l-49 28 -4 67 -3 67 -2 -70z"/>
<path d="M5233 4203 c-19 -13 -23 -25 -23 -69 l0 -55 30 16 c28 14 30 20 30
70 0 59 -3 62 -37 38z"/>
<path d="M5158 4162 c-25 -15 -28 -23 -28 -74 l0 -57 30 17 c28 16 30 21 30
75 0 31 -1 57 -2 56 -2 0 -15 -8 -30 -17z"/>
<path d="M4214 4144 c-18 -14 -18 -15 4 -4 12 6 22 13 22 15 0 8 -5 6 -26 -11z"/>
<path d="M5318 4124 c-25 -13 -28 -20 -28 -69 0 -59 6 -65 39 -37 19 14 22 26
19 69 l-3 51 -27 -14z"/>
<path d="M5068 4108 c-36 -21 -38 -24 -38 -75 0 -29 2 -53 6 -53 3 0 22 10 43
22 37 21 38 24 37 75 0 29 -3 53 -6 53 -3 0 -22 -10 -42 -22z"/>
<path d="M6592 4065 l-1 -70 54 -32 c30 -17 55 -27 55 -23 0 5 -22 21 -50 36
l-49 27 -4 66 -3 66 -2 -70z"/>
<path d="M5232 4074 c-18 -12 -22 -25 -22 -70 l0 -55 30 16 c28 14 30 20 30
70 0 59 -4 63 -38 39z"/>
<path d="M6221 4031 c-26 -22 -32 -33 -26 -47 6 -15 8 -16 12 -4 3 8 19 30 36
48 38 39 24 42 -22 3z"/>
<path d="M5158 4032 c-25 -15 -28 -23 -28 -74 l0 -57 30 17 c28 16 30 21 30
75 0 31 -1 57 -2 56 -2 0 -15 -8 -30 -17z"/>
<path d="M6267 4012 c-15 -15 -27 -36 -27 -45 0 -12 11 -5 35 22 19 21 35 41
35 45 0 13 -18 5 -43 -22z"/>
<path d="M5318 3994 c-25 -13 -28 -20 -28 -69 0 -30 3 -55 8 -55 4 0 17 8 30
18 20 15 23 25 20 69 l-3 51 -27 -14z"/>
<path d="M6306 3981 c-16 -16 -27 -33 -25 -38 2 -5 19 8 38 29 39 44 28 52
-13 9z"/>
<path d="M5068 3979 c-37 -19 -38 -21 -38 -74 0 -30 2 -55 6 -55 3 0 22 10 43
22 36 21 38 23 37 75 -1 29 -3 53 -6 53 -3 -1 -22 -10 -42 -21z"/>
<path d="M6347 3962 c-15 -15 -27 -36 -27 -47 0 -14 8 -9 35 21 19 21 34 42
35 47 0 15 -17 6 -43 -21z"/>
<path d="M6392 3937 c-32 -33 -41 -57 -22 -57 6 0 10 5 10 12 0 7 12 24 27 40
14 15 24 30 22 33 -3 2 -20 -10 -37 -28z"/>
<path d="M5233 3948 c-20 -10 -23 -19 -23 -70 l0 -59 30 18 c27 16 30 22 30
70 0 56 -2 58 -37 41z"/>
<path d="M6428 3912 c-24 -22 -29 -33 -24 -48 7 -15 9 -16 13 -4 3 8 19 30 36
48 38 40 19 43 -25 4z"/>
<path d="M5391 3906 c-20 -11 -23 -21 -25 -69 0 -32 1 -57 4 -57 3 0 14 7 24
15 15 11 21 30 23 70 2 30 2 55 0 55 -1 -1 -13 -7 -26 -14z"/>
<path d="M6470 3885 c-26 -27 -31 -38 -22 -47 9 -9 12 -9 12 0 0 7 14 25 32
41 17 15 27 31 21 34 -5 3 -25 -9 -43 -28z"/>
<path d="M6511 3866 c-13 -13 -21 -30 -19 -38 2 -8 15 1 37 24 37 42 20 55
-18 14z"/>
<path d="M5320 3865 c-20 -11 -26 -23 -30 -62 -5 -48 -4 -50 19 -47 36 4 42
16 39 72 l-3 50 -25 -13z"/>
<path d="M6557 3842 c-15 -15 -27 -36 -27 -45 0 -12 11 -5 35 22 19 21 35 41
35 45 0 13 -18 5 -43 -22z"/>
<path d="M6603 3821 c-32 -26 -44 -61 -22 -61 5 0 8 4 5 9 -3 5 10 22 31 38
20 17 32 32 27 35 -5 3 -24 -6 -41 -21z"/>
<path d="M5238 3822 c-29 -18 -38 -35 -14 -26 8 3 21 -5 30 -18 16 -22 16 -22
16 20 0 23 -1 42 -2 41 -2 0 -15 -8 -30 -17z"/>
<path d="M2770 3823 c0 -6 8 -17 18 -24 16 -13 16 -13 2 6 -8 11 -16 22 -17
24 -2 2 -3 0 -3 -6z"/>
<path d="M3529 3803 c-13 -16 -12 -17 4 -4 16 13 21 21 13 21 -2 0 -10 -8 -17
-17z"/>
<path d="M6636 3791 c-20 -21 -26 -35 -21 -48 6 -15 8 -15 12 -3 3 8 19 30 36
48 21 22 26 32 16 32 -8 0 -28 -13 -43 -29z"/>
<path d="M6680 3765 c-21 -21 -30 -38 -24 -43 5 -5 23 7 42 29 42 48 26 60
-18 14z"/>
<path d="M5380 3770 c-14 -11 -21 -20 -16 -20 5 0 3 -6 -3 -13 -8 -11 -6 -16
12 -24 34 -16 48 -2 45 40 -2 43 -4 43 -38 17z m20 -10 c-8 -5 -19 -10 -25
-10 -5 0 -3 5 5 10 8 5 20 10 25 10 6 0 3 -5 -5 -10z"/>
<path d="M5320 3740 c-13 -8 -13 -10 2 -10 9 0 20 5 23 10 8 13 -5 13 -25 0z"/>
<path d="M3371 3640 l-154 -89 0 -465 c0 -255 4 -470 8 -477 5 -8 4 -10 -3 -5
-8 5 -10 2 -6 -8 4 -11 -2 -19 -20 -26 -26 -10 -75 -59 -108 -109 -38 -57 -9
-130 58 -147 l27 -7 -34 -16 c-44 -21 -60 -62 -34 -91 41 -45 162 -49 212 -5
36 30 26 68 -24 94 l-37 19 32 7 c41 8 72 48 72 91 0 24 -12 47 -43 86 l-43
53 130 75 c103 59 132 81 134 99 5 30 7 31 -162 -68 -77 -45 -141 -79 -144
-77 -5 5 52 41 134 85 52 28 60 36 57 56 -3 12 -20 38 -39 56 -19 18 -34 37
-34 41 0 19 29 5 65 -32 35 -36 38 -43 27 -60 -14 -23 -10 -25 17 -8 26 16 16
43 -33 88 -36 34 -39 40 -23 46 14 5 30 -4 60 -35 37 -36 40 -43 29 -61 -14
-23 -10 -25 17 -8 25 15 16 46 -25 85 -35 32 -43 53 -21 53 15 0 82 -67 90
-90 4 -12 6 -12 12 3 6 14 -3 29 -35 62 -24 24 -48 41 -53 38 -6 -3 -7 -2 -4
4 3 5 19 9 34 8 l28 -1 -1 115 -2 116 40 41 c22 23 36 44 31 47 -10 6 -68 -41
-74 -61 -2 -6 -2 109 -1 257 2 148 2 278 0 289 -3 19 -18 13 -157 -68z m104
21 c3 -5 2 -12 -3 -15 -5 -3 -9 1 -9 9 0 17 3 19 12 6z m-25 -25 c0 -2 -8 -10
-17 -17 -16 -13 -17 -12 -4 4 13 16 21 21 21 13z m58 -74 l3 -61 -43 -25 c-71
-41 -72 -40 -78 40 -3 46 -1 70 5 68 6 -2 28 7 50 21 22 13 45 23 50 21 6 -1
11 -30 13 -64z m-148 -84 l-1 -63 -46 -28 c-62 -38 -73 -31 -73 42 0 59 0 60
43 84 69 41 77 37 77 -35z m148 -85 l3 -61 -53 -30 c-29 -16 -56 -28 -60 -25
-5 2 -8 32 -8 66 l0 62 48 27 c26 15 52 26 57 24 6 -1 11 -30 13 -63z m-148
-85 l0 -63 -50 -28 c-28 -16 -55 -25 -60 -22 -6 3 -10 33 -10 65 0 58 0 59 43
83 69 41 77 37 77 -35z m148 -85 l3 -61 -53 -30 c-29 -16 -56 -28 -60 -25 -5
2 -8 32 -8 66 l0 62 48 27 c26 15 52 26 57 24 6 -1 11 -30 13 -63z m-148 -85
l0 -63 -51 -28 c-27 -15 -54 -25 -60 -22 -5 4 -9 33 -9 65 0 58 0 59 43 83 69
41 77 37 77 -35z m148 -84 l3 -59 -52 -32 c-29 -18 -56 -30 -61 -27 -4 3 -8
33 -8 67 l0 62 48 27 c26 15 52 26 57 24 6 -1 11 -29 13 -62z m-148 -87 l0
-62 -51 -28 c-27 -15 -54 -25 -60 -22 -5 4 -9 33 -9 65 l0 58 52 30 c29 17 56
28 60 26 4 -3 8 -33 8 -67z m160 -22 c0 -2 -6 -8 -13 -14 -10 -8 -14 -7 -14 2
0 8 6 14 14 14 7 0 13 -1 13 -2z m-125 -34 c3 -5 2 -12 -3 -15 -5 -3 -9 1 -9
9 0 17 3 19 12 6z m62 -6 c0 -8 -4 -12 -9 -9 -5 3 -6 10 -3 15 9 13 12 11 12
-6z m-86 -38 c-7 -7 -7 -14 0 -24 18 -21 4 -15 -17 8 -14 15 -15 20 -4 17 8
-2 14 3 12 10 -1 8 2 11 9 7 7 -5 8 -10 0 -18z m-43 -39 c10 -12 10 -18 1 -24
-7 -4 -9 -3 -5 4 3 6 2 13 -4 17 -5 3 -10 11 -10 17 0 6 1 9 3 7 1 -2 8 -11
15 -21z m-79 -2 c9 -11 9 -16 -1 -22 -7 -4 -10 -4 -6 1 4 4 3 14 -3 22 -6 7
-9 13 -6 13 2 0 10 -6 16 -14z m115 -75 c25 -25 37 -45 33 -55 -8 -20 -27 -21
-27 -1 0 8 -18 29 -40 46 -22 18 -40 36 -40 41 0 21 40 4 74 -31z m-53 -18
c25 -24 39 -45 37 -57 -4 -23 -28 -34 -28 -13 0 9 -20 33 -45 55 -38 33 -43
41 -28 45 10 3 20 5 21 6 2 0 22 -16 43 -36z m-45 -55 l29 -33 -32 29 c-31 28
-38 36 -30 36 2 0 16 -15 33 -32z m19 -46 c-3 -3 -11 0 -18 7 -9 10 -8 11 6 5
10 -3 15 -9 12 -12z"/>
<path d="M6741 3658 c0 -21 1 -38 3 -38 2 0 13 -3 23 -6 17 -6 17 -6 1 7 -9 8
-19 28 -21 44 -4 27 -4 26 -6 -7z"/>
<path d="M6475 3627 c-10 -8 -14 -16 -9 -19 5 -3 25 -15 44 -25 19 -11 70 -41
113 -68 64 -38 80 -45 93 -35 11 10 18 10 32 -4 10 -9 23 -16 28 -16 5 0 1 5
-8 11 -10 5 -18 16 -18 24 0 7 -10 17 -22 21 -12 3 -50 24 -85 45 -35 22 -67
39 -71 39 -4 0 -18 9 -32 20 -30 23 -40 24 -65 7z"/>
<path d="M6800 3596 c0 -3 9 -10 20 -16 11 -6 20 -8 20 -6 0 3 -9 10 -20 16
-11 6 -20 8 -20 6z"/>
<path d="M6700 3566 c0 -3 9 -10 20 -16 11 -6 20 -8 20 -6 0 3 -9 10 -20 16
-11 6 -20 8 -20 6z"/>
<path d="M6757 3529 c7 -7 15 -10 18 -7 3 3 -2 9 -12 12 -14 6 -15 5 -6 -5z"/>
<path d="M6801 3447 c2 -1 13 -9 24 -17 19 -14 19 -14 6 3 -7 9 -18 17 -24 17
-6 0 -8 -1 -6 -3z"/>
<path d="M6664 3406 c-21 -13 -83 -49 -137 -80 l-99 -58 34 -19 c18 -10 60
-33 94 -50 l60 -31 92 53 c51 30 106 62 123 71 18 9 36 21 41 26 8 8 -50 46
-163 108 -3 1 -23 -7 -45 -20z"/>
<path d="M3530 3234 c0 -14 3 -14 15 -4 8 7 15 14 15 16 0 2 -7 4 -15 4 -8 0
-15 -7 -15 -16z"/>
<path d="M5905 3210 c1 -19 10 -36 23 -46 21 -15 22 -14 22 17 0 19 -7 37 -17
45 -26 19 -30 17 -28 -16z"/>
<path d="M8482 3147 c-2 -97 -14 -131 -66 -185 -36 -39 -48 -46 -1151 -687
-1179 -685 -2355 -1368 -2930 -1703 -269 -157 -517 -297 -549 -310 -161 -66
-379 -66 -542 0 -32 13 -266 143 -519 290 -253 146 -782 451 -1175 678 -393
227 -728 422 -743 433 -16 11 -42 38 -58 60 l-29 40 0 -74 c0 -173 11 -184
475 -451 198 -113 735 -422 1192 -687 458 -264 859 -490 892 -501 172 -58 406
-48 545 22 23 11 433 248 911 526 479 278 960 558 1070 622 2186 1269 2564
1491 2606 1528 73 65 80 93 77 307 -2 99 -5 140 -6 92z"/>
<path d="M5960 3177 c0 -25 6 -36 23 -44 22 -10 23 -9 19 23 -3 21 -12 39 -23
45 -17 9 -19 6 -19 -24z"/>
<path d="M3603 3157 c-22 -23 -39 -48 -36 -54 6 -16 23 -17 23 -1 0 7 16 29
36 49 20 20 32 39 27 42 -6 4 -28 -13 -50 -36z"/>
<path d="M3652 3137 c-31 -32 -43 -77 -21 -77 5 0 8 4 5 8 -3 5 12 26 34 47
35 34 43 55 21 55 -4 0 -21 -15 -39 -33z"/>
<path d="M3707 3107 c-24 -21 -37 -40 -37 -57 0 -25 0 -24 19 6 10 17 31 40
45 52 15 11 23 23 19 25 -4 3 -25 -9 -46 -26z"/>
<path d="M3756 3079 c-34 -29 -50 -79 -26 -79 6 0 10 5 10 12 0 7 16 29 36 49
45 46 28 61 -20 18z"/>
<path d="M5905 3059 c1 -28 17 -48 38 -49 17 0 6 60 -12 70 -27 14 -28 14 -26
-21z"/>
<path d="M5960 3027 c0 -25 6 -36 23 -44 22 -10 23 -9 19 23 -3 21 -12 39 -23
45 -17 9 -19 6 -19 -24z"/>
<path d="M2776 2851 c-29 -29 -37 -44 -31 -58 7 -17 7 -17 15 2 4 11 22 33 39
49 30 29 39 46 23 46 -4 0 -25 -18 -46 -39z"/>
<path d="M2827 2827 c-36 -31 -47 -60 -27 -72 6 -3 10 0 10 7 0 8 16 29 35 48
58 56 44 70 -18 17z"/>
<path d="M2876 2791 c-29 -29 -37 -44 -31 -58 6 -15 8 -15 12 -3 3 8 24 34 46
58 26 26 35 42 26 42 -8 0 -32 -18 -53 -39z"/>
<path d="M2926 2771 c-36 -37 -45 -64 -26 -76 6 -3 10 0 10 7 0 7 18 31 41 54
30 31 37 43 26 47 -9 3 -29 -10 -51 -32z"/>
<path d="M2978 2739 c-37 -30 -49 -61 -28 -74 6 -3 10 3 10 13 0 11 16 32 35
46 32 25 45 46 28 46 -5 -1 -25 -14 -45 -31z"/>
<path d="M3025 2709 c-37 -33 -47 -69 -18 -69 9 0 13 3 9 7 -3 4 13 26 36 50
50 51 29 61 -27 12z"/>
<path d="M3103 2540 c-2 -22 17 -26 35 -8 18 18 14 28 -11 28 -16 0 -23 -6
-24 -20z"/>
<path d="M2773 1630 c-55 -93 -263 -157 -430 -131 -105 16 -181 49 -235 101
l-48 46 0 -30 c0 -128 234 -230 448 -197 103 16 180 48 231 96 36 34 45 50 51
91 4 27 7 50 5 52 -2 2 -11 -11 -22 -28z m-633 -72 c0 4 4 2 8 -4 9 -15 77
-44 117 -51 17 -3 37 -8 45 -13 16 -8 203 -5 256 4 50 9 125 45 171 82 51 42
56 26 12 -35 -19 -25 -37 -40 -45 -37 -8 3 -13 0 -11 -6 1 -7 -2 -13 -8 -13
-5 -1 -32 -12 -58 -24 -27 -13 -58 -21 -68 -18 -10 3 -19 2 -19 -3 0 -12 -69
-17 -81 -5 -9 7 -10 7 -5 -2 7 -12 -7 -12 -124 2 -64 7 -92 16 -139 40 -64 34
-84 51 -75 66 4 7 3 10 -4 5 -13 -8 -42 31 -42 57 0 14 7 10 35 -17 19 -20 35
-32 35 -28z"/>
</g>
</svg>
